<?xml version="1.0" encoding="UTF-8"?>
<svg id="Calque_2" data-name="Calque 2" xmlns="http://www.w3.org/2000/svg" viewBox="0 0 262.11 104.41">
  <defs>
    <style>
      .cls-1 {
        fill: #1a1a1a;
      }
    </style>
  </defs>
  <g>
    <path class="cls-1" d="M180.7,47.58c-.55,0-1.07-.32-1.31-.85-.28-.63-.06-1.37.51-1.76l31.63-21.26c.35-.24.79-.3,1.19-.19.41.12.74.41.91.79l5.39,12.21c.17.39.16.83-.02,1.21-.19.38-.53.66-.94.76l-37.02,9.06c-.11.03-.23.04-.34.04ZM211.72,27.02l-23.56,15.83,27.57-6.75-4.01-9.09Z"/>
    <path class="cls-1" d="M189.76,84.6c-.22,0-.43-.05-.63-.15-.38-.19-.65-.53-.76-.94l-9.06-37.02c-.16-.67.18-1.36.81-1.64.63-.28,1.37-.06,1.76.51l21.27,31.63c.24.35.3.79.19,1.19-.12.41-.41.74-.79.91l-12.21,5.39c-.18.08-.38.12-.58.12ZM184,53.61l6.75,27.57,9.09-4.01-15.84-23.56Z"/>
    <path class="cls-1" d="M180.7,47.58c-.46,0-.91-.23-1.18-.63l-21.27-31.63c-.24-.35-.3-.79-.19-1.19.12-.41.41-.74.79-.91l12.21-5.39c.39-.17.83-.16,1.21.02.38.19.66.53.76.94l9.01,36.8c.07.17.11.36.11.56,0,.79-.64,1.43-1.43,1.43h-.02ZM161.57,15.14l15.84,23.56-6.75-27.57-9.09,4.02Z"/>
    <path class="cls-1" d="M213.29,67.35c-.26,0-.51-.07-.74-.21l-32.59-19.77c-.59-.36-.84-1.09-.59-1.74.25-.65.93-1.02,1.6-.89l37.41,7.33c.41.08.77.34.98.71.2.37.23.81.08,1.2l-4.82,12.44c-.15.39-.47.7-.87.84-.15.05-.31.08-.46.08ZM188.31,49.1l24.27,14.72,3.59-9.27-27.85-5.46Z"/>
    <path class="cls-1" d="M173.37,84.99c-.17,0-.35-.03-.52-.1l-12.44-4.82c-.39-.15-.7-.47-.84-.87-.14-.4-.09-.84.13-1.2l19.77-32.59c.36-.59,1.09-.84,1.74-.59.65.25,1.02.93.89,1.61l-7.33,37.41c-.08.41-.34.77-.71.97-.21.12-.45.18-.69.18ZM163.03,78.02l9.27,3.59,5.46-27.85-14.73,24.27Z"/>
    <path class="cls-1" d="M180.7,47.58c-.17,0-.35-.03-.52-.1-.65-.25-1.02-.93-.89-1.61l7.33-37.4c.08-.41.34-.77.71-.98.37-.2.81-.23,1.2-.08l12.44,4.82c.39.15.7.47.84.87.14.4.09.84-.13,1.2l-19.77,32.59c-.27.44-.73.69-1.22.69ZM189.11,10.69l-5.46,27.85,14.73-24.27-9.27-3.59Z"/>
    <path class="cls-1" d="M247.31,47.58h-62.56c-.79,0-1.43-.64-1.43-1.43s.64-1.43,1.43-1.43h62.56c.79,0,1.43.64,1.43,1.43,0,.79-.64,1.43-1.43,1.43Z"/>
    <path class="cls-1" d="M252.07,58.58c-.18,0-.37-.03-.54-.11l-27.59-11.27c-.55-.22-.9-.76-.89-1.36.02-.59.4-1.12.96-1.31l27.59-9.66c.44-.15.92-.08,1.3.18.38.27.6.7.6,1.16v20.93c0,.48-.24.92-.63,1.19-.24.16-.52.24-.8.24Z"/>
  </g>
  <g>
    <path d="M10.37,29.8h6.08v10.9l8.58-10.9h7.22l-11.04,14.1,12.11,17.5h-7.13l-9.74-14.04v14.04h-6.08v-31.6Z"/>
    <path d="M47.25,29.8h6.1l12.16,31.6h-6.25l-2.47-6.51h-12.9l-2.57,6.51h-6.25l12.19-31.6ZM50.34,38.18l-4.24,10.85h8.46l-4.21-10.85Z"/>
    <path d="M70.57,29.8h6.37c3.49,0,5.98.31,7.46.93,1.48.62,2.67,1.66,3.57,3.1.9,1.45,1.35,3.16,1.35,5.13,0,2.08-.5,3.81-1.49,5.21s-2.5,2.45-4.5,3.17l7.49,14.05h-6.58l-7.11-13.38h-.55v13.38h-6.02v-31.6ZM76.58,42.16h1.88c1.91,0,3.23-.25,3.95-.75.72-.5,1.08-1.34,1.08-2.5,0-.69-.18-1.29-.54-1.8-.36-.51-.83-.88-1.43-1.1-.6-.22-1.7-.33-3.3-.33h-1.65v6.49Z"/>
    <path d="M110.6,29.01c4.47,0,8.32,1.62,11.53,4.86,3.22,3.24,4.83,7.18,4.83,11.84s-1.59,8.52-4.76,11.71c-3.17,3.19-7.03,4.79-11.55,4.79s-8.69-1.64-11.82-4.92c-3.14-3.28-4.71-7.18-4.71-11.69,0-3.02.73-5.8,2.19-8.34s3.47-4.54,6.03-6.03c2.56-1.48,5.31-2.22,8.27-2.22ZM110.54,34.9c-2.93,0-5.38,1.02-7.38,3.05-1.99,2.03-2.99,4.62-2.99,7.76,0,3.5,1.25,6.26,3.76,8.29,1.95,1.59,4.19,2.38,6.71,2.38,2.85,0,5.28-1.03,7.29-3.09,2.01-2.06,3.01-4.6,3.01-7.63s-1.01-5.55-3.03-7.64-4.48-3.13-7.38-3.13Z"/>
    <path d="M147.56,29.01c4.47,0,8.32,1.62,11.53,4.86,3.22,3.24,4.83,7.18,4.83,11.84s-1.59,8.52-4.76,11.71c-3.17,3.19-7.03,4.79-11.55,4.79s-8.69-1.64-11.82-4.92c-3.14-3.28-4.71-7.18-4.71-11.69,0-3.02.73-5.8,2.19-8.34s3.47-4.54,6.03-6.03c2.56-1.48,5.31-2.22,8.27-2.22ZM147.49,34.9c-2.93,0-5.38,1.02-7.38,3.05-1.99,2.03-2.99,4.62-2.99,7.76,0,3.5,1.25,6.26,3.76,8.29,1.95,1.59,4.19,2.38,6.71,2.38,2.85,0,5.28-1.03,7.29-3.09,2.01-2.06,3.01-4.6,3.01-7.63s-1.01-5.55-3.03-7.64-4.48-3.13-7.38-3.13Z"/>
    <path d="M7.06,89.13l1.59-.95c1.12,2.06,2.41,3.08,3.87,3.08.63,0,1.21-.15,1.76-.44.55-.29.97-.68,1.26-1.17.29-.49.43-1.01.43-1.56,0-.63-.21-1.24-.63-1.84-.58-.83-1.65-1.83-3.2-3-1.56-1.18-2.53-2.03-2.91-2.55-.66-.88-.99-1.83-.99-2.86,0-.81.19-1.55.58-2.22.39-.67.94-1.2,1.64-1.58.71-.39,1.47-.58,2.3-.58.88,0,1.7.22,2.47.65.77.44,1.58,1.24,2.43,2.41l-1.52,1.16c-.7-.93-1.3-1.54-1.8-1.84s-1.03-.44-1.62-.44c-.75,0-1.37.23-1.85.69-.48.46-.72,1.02-.72,1.69,0,.41.08.8.25,1.18.17.38.48.8.93,1.24.25.24,1.05.86,2.41,1.87,1.62,1.19,2.72,2.26,3.33,3.19.6.93.9,1.87.9,2.81,0,1.35-.51,2.53-1.54,3.53s-2.28,1.5-3.75,1.5c-1.13,0-2.16-.3-3.08-.91-.92-.6-1.77-1.62-2.55-3.04Z"/>
    <path d="M28.18,78.44c2.13,0,3.89.77,5.29,2.31,1.27,1.4,1.91,3.07,1.91,4.99s-.67,3.62-2.02,5.06c-1.34,1.44-3.07,2.16-5.18,2.16s-3.85-.72-5.2-2.16-2.02-3.13-2.02-5.06.64-3.57,1.91-4.98c1.4-1.55,3.17-2.32,5.3-2.32ZM28.18,80.18c-1.48,0-2.75.55-3.81,1.64-1.06,1.09-1.59,2.41-1.59,3.96,0,1,.24,1.93.73,2.79.48.86,1.14,1.53,1.96,2,.82.47,1.73.7,2.71.7s1.89-.23,2.71-.7,1.48-1.14,1.96-2,.73-1.79.73-2.79c0-1.55-.53-2.87-1.6-3.96-1.07-1.09-2.33-1.64-3.8-1.64Z"/>
    <path d="M44.36,73.46v1.74c-.65-.28-1.21-.42-1.68-.42-.35,0-.63.07-.86.21s-.37.3-.43.48c-.06.18-.09.67-.09,1.45v1.87s2.88,0,2.88,0v1.54h-2.88v12.28h-1.79v-12.28h-1.82v-1.54h1.82v-2.16c0-.99.09-1.7.27-2.12.18-.42.49-.76.93-1.02.44-.26.96-.39,1.58-.39.58,0,1.26.12,2.07.36Z"/>
    <path d="M48.38,73.67h1.78v5.13h2.82v1.54h-2.82v12.28h-1.78v-12.28h-2.42v-1.54h2.42v-5.13Z"/>
    <path d="M53.78,78.79h1.83l4.23,10.03,4.41-10.03h.32l4.44,10.03,4.32-10.03h1.85l-6,13.81h-.33l-4.42-9.89-4.41,9.89h-.33l-5.9-13.81Z"/>
    <path d="M91.01,78.79v13.81h-1.75v-2.37c-.75.91-1.58,1.59-2.51,2.04s-1.94.69-3.04.69c-1.96,0-3.62-.71-5.01-2.13s-2.08-3.14-2.08-5.17.7-3.69,2.09-5.1,3.08-2.12,5.04-2.12c1.13,0,2.16.24,3.08.72.92.48,1.72,1.21,2.42,2.17v-2.54h1.75ZM83.91,80.15c-.99,0-1.9.24-2.74.73-.84.49-1.5,1.17-2,2.05-.49.88-.74,1.81-.74,2.79s.25,1.9.75,2.79c.5.89,1.17,1.58,2.01,2.07s1.74.74,2.71.74,1.89-.25,2.76-.74c.87-.49,1.54-1.15,2.01-1.99.47-.84.7-1.78.7-2.83,0-1.6-.53-2.93-1.58-4.01-1.05-1.07-2.35-1.61-3.89-1.61Z"/>
    <path d="M94.34,78.79h1.82v2.02c.54-.8,1.11-1.39,1.71-1.78.6-.39,1.23-.59,1.88-.59.49,0,1.02.16,1.57.47l-.93,1.5c-.37-.16-.69-.24-.94-.24-.59,0-1.16.24-1.71.73-.55.49-.97,1.24-1.26,2.27-.22.79-.33,2.38-.33,4.77v4.67h-1.82v-13.81Z"/>
    <path d="M114.46,88.02l1.5.79c-.49.96-1.06,1.74-1.7,2.34s-1.37,1.04-2.17,1.35-1.72.46-2.73.46c-2.25,0-4.01-.74-5.29-2.22-1.27-1.48-1.91-3.15-1.91-5.01,0-1.75.54-3.31,1.61-4.68,1.36-1.74,3.19-2.62,5.48-2.62s4.24.89,5.64,2.68c1,1.26,1.51,2.84,1.53,4.72h-12.43c.03,1.6.55,2.92,1.54,3.95.99,1.03,2.22,1.54,3.67,1.54.7,0,1.39-.12,2.05-.37s1.23-.57,1.7-.97c.47-.4.97-1.06,1.51-1.96ZM114.46,84.3c-.24-.95-.58-1.71-1.04-2.27-.45-.57-1.05-1.02-1.8-1.37s-1.53-.52-2.35-.52c-1.36,0-2.52.44-3.5,1.31-.71.63-1.25,1.59-1.61,2.86h10.3Z"/>
  </g>
</svg>